HIERARCHY
ROOT Hips
{
 OFFSET 0.000000 0.000000 0.000000
 CHANNELS 6 Xposition Yposition Zposition Yrotation Xrotation Zrotation
 JOINT Chest
 {
  OFFSET 0.000000 9.588913 -0.003946
  CHANNELS 3 Yrotation Xrotation Zrotation
  JOINT Chest2
  {
   OFFSET 0.000000 9.541882 0.008053
   CHANNELS 3 Yrotation Xrotation Zrotation
   JOINT Chest3
   {
    OFFSET 0.000000 9.501360 0.000000
    CHANNELS 3 Yrotation Xrotation Zrotation
    JOINT Chest4
    {
     OFFSET 0.000000 9.491660 0.000000
     CHANNELS 3 Yrotation Xrotation Zrotation
     JOINT Neck
     {
      OFFSET 0.000000 14.331917 0.000000
      CHANNELS 3 Yrotation Xrotation Zrotation
      JOINT Head
      {
       OFFSET 0.000000 8.884799 0.017034
       CHANNELS 3 Yrotation Xrotation Zrotation
       End Site
       {
        OFFSET 0.000000 16.896195 0.008993
       }
      }
     }
     JOINT RightCollar
     {
      OFFSET -2.923010 9.499495 0.000000
      CHANNELS 3 Yrotation Xrotation Zrotation
      JOINT RightShoulder
      {
       OFFSET -13.795216 0.000000 0.000000
       CHANNELS 3 Yrotation Xrotation Zrotation
       JOINT RightElbow
       {
        OFFSET -30.272209 0.000000 0.000000
        CHANNELS 3 Yrotation Xrotation Zrotation
        JOINT RightWrist
        {
         OFFSET -24.478199 0.000000 0.000000
         CHANNELS 3 Yrotation Xrotation Zrotation
         End Site
         {
          OFFSET -18.090752 0.000000 0.000000
         }
        }
       }
      }
     }
     JOINT LeftCollar
     {
      OFFSET 2.923010 9.499495 0.000000
      CHANNELS 3 Yrotation Xrotation Zrotation
      JOINT LeftShoulder
      {
       OFFSET 13.795216 0.000000 0.000000
       CHANNELS 3 Yrotation Xrotation Zrotation
       JOINT LeftElbow
       {
        OFFSET 30.272209 0.000000 0.000000
        CHANNELS 3 Yrotation Xrotation Zrotation
        JOINT LeftWrist
        {
         OFFSET 24.478199 0.000000 0.000000
         CHANNELS 3 Yrotation Xrotation Zrotation
         End Site
         {
          OFFSET 18.090752 0.000000 0.000000
         }
        }
       }
      }
     }
    }
   }
  }
 }
 JOINT RightHip
 {
  OFFSET -7.826875 0.019532 0.001973
  CHANNELS 3 Yrotation Xrotation Zrotation
  JOINT RightKnee
  {
   OFFSET 0.000000 -40.546152 -0.001885
   CHANNELS 3 Yrotation Xrotation Zrotation
   JOINT RightAnkle
   {
    OFFSET 0.000000 -39.417092 -0.003189
    CHANNELS 3 Yrotation Xrotation Zrotation
    JOINT RightToe
    {
     OFFSET 0.000000 -7.579396 17.243563
     CHANNELS 3 Yrotation Xrotation Zrotation
     End Site
     {
      OFFSET 0.000000 -1.500329 6.694466
     }
    }
   }
  }
 }
 JOINT LeftHip
 {
  OFFSET 7.826875 0.019532 0.001973
  CHANNELS 3 Yrotation Xrotation Zrotation
  JOINT LeftKnee
  {
   OFFSET 0.000000 -40.546152 -0.001885
   CHANNELS 3 Yrotation Xrotation Zrotation
   JOINT LeftAnkle
   {
    OFFSET 0.000000 -39.417092 -0.003189
    CHANNELS 3 Yrotation Xrotation Zrotation
    JOINT LeftToe
    {
     OFFSET 0.000000 -7.579396 17.243563
     CHANNELS 3 Yrotation Xrotation Zrotation
     End Site
     {
      OFFSET 0.000000 -1.500329 6.694466
     }
    }
   }
  }
 }
}
MOTION
Frames: 11
Frame Time: 0.008333
0.000000 87.345680 0.000000 0.000000 -5.767889 0.000000 0.000000 11.653876 0.000000 0.000000 -5.885988 0.000000 0.000000 -0.000000 0.000000 0.000000 -0.000000 0.000000 0.000000 12.528808 0.000000 0.000000 0.711711 0.000000 0.000000 -0.000000 0.000000 0.000000 -0.000000 0.000000 2.309063 -0.000000 0.000000 -2.309063 -0.000000 -0.000000 0.000000 -0.000000 0.000000 0.000000 0.000000 0.000000 -2.309063 0.000000 0.000000 2.309063 -0.000000 0.000000 0.000000 8.520374 0.000000 0.000000 1.905768 0.000000 -0.000000 -4.658254 0.000000 0.000000 -0.000000 0.000000 0.000000 8.520374 0.000000 0.000000 1.905768 0.000000 -0.000000 -4.658254 0.000000 0.000000 -0.000000 0.000000
4.367274 88.928951 -25.563132 129.017207 -6.971986 0.605703 0.926768 2.762846 -1.339275 0.543667 1.577497 -0.725290 0.676523 1.972931 -0.904356 0.543667 1.577497 -0.725290 -16.622875 24.711479 2.740572 -20.069989 2.982971 7.024099 -2.192749 0.559294 -0.298573 -3.752740 -0.681323 89.202149 6.004986 1.638583 1.176986 2.245424 -3.099083 -1.193173 4.402117 1.873381 -1.858668 2.178924 -3.098278 -87.427959 0.036148 2.250480 1.717224 -3.553050 2.463104 4.506906 -15.837725 6.862265 -10.072489 1.767263 9.170433 -1.831694 0.195831 -8.868255 6.220466 -0.026528 -0.310814 0.557948 9.459851 10.653594 2.427183 7.157172 -1.463945 -0.718411 2.430843 -2.348363 -1.724168 0.016204 -0.037788 0.006222
4.421584 88.944188 -25.605092 128.863221 -7.175040 0.651367 0.905688 2.810701 -1.270769 0.538253 1.600359 -0.697955 0.669832 2.001459 -0.870177 0.538254 1.600360 -0.697956 -17.184661 24.625665 2.671884 -20.780635 2.981726 7.084378 -2.202960 0.680760 -0.250930 -3.747787 -0.821018 89.123776 6.040460 1.623671 1.195461 2.258745 -3.079176 -1.148910 4.403664 2.112210 -1.955001 2.745086 -3.178750 -87.304331 -0.330048 2.064688 1.241316 -3.721933 2.285185 4.583736 -16.116069 7.059709 -10.378359 1.845927 9.073777 -1.657483 0.433249 -8.782789 6.170472 -0.046944 -0.322713 0.451266 9.408529 10.892919 2.386253 7.220632 -1.411081 -0.656686 2.510443 -2.354165 -1.763467 0.012477 -0.092439 -0.004409
4.482382 88.962473 -25.639432 128.719832 -7.378898 0.682008 0.875560 2.858330 -1.184674 0.526438 1.626803 -0.665382 0.655158 2.034446 -0.829472 0.526439 1.626805 -0.665383 -17.711298 24.495503 2.590946 -21.446761 2.917096 7.122271 -2.213973 0.776956 -0.220881 -3.725805 -0.930184 89.055486 6.073515 1.613447 1.204935 2.263333 -3.056973 -1.110843 4.396788 2.315098 -2.041094 3.303823 -3.188920 -87.211879 -0.676338 1.800183 0.771459 -3.952042 2.069700 4.681745 -16.232072 7.317609 -10.630626 1.871794 8.937962 -1.493540 0.545800 -8.667811 6.123226 -0.053631 -0.336488 0.370087 9.356609 11.123310 2.367882 7.266967 -1.349128 -0.596065 2.599601 -2.355509 -1.812364 0.006683 -0.151536 -0.010300
4.545056 88.983090 -25.661748 128.589650 -7.565575 0.706701 0.839936 2.895079 -1.090021 0.506323 1.654028 -0.629668 0.630126 2.068393 -0.784880 0.506324 1.654030 -0.629669 -18.202860 24.329341 2.501909 -22.069006 2.799648 7.142686 -2.223097 0.844336 -0.200229 -3.704465 -1.006299 88.994755 6.099463 1.614510 1.207091 2.262031 -3.032572 -1.092779 4.388062 2.474032 -2.107702 3.831072 -3.125462 -87.158169 -0.984402 1.461017 0.327332 -4.243309 1.816655 4.797283 -16.121810 7.579653 -10.802393 1.885768 8.854338 -1.366607 0.474049 -8.564938 6.105877 -0.041483 -0.359372 0.301533 9.302833 11.325826 2.356682 7.316796 -1.282979 -0.531703 2.680272 -2.344789 -1.874405 -0.000049 -0.214565 -0.010744
4.606166 89.004934 -25.668798 128.484258 -7.720866 0.729798 0.796304 2.916646 -0.993977 0.476242 1.678256 -0.591512 0.592655 2.098579 -0.737288 0.476242 1.678260 -0.591513 -18.664565 24.135156 2.405850 -22.653985 2.640425 7.148120 -2.230672 0.891284 -0.186708 -3.699420 -1.056073 88.942731 6.112638 1.632287 1.201264 2.256339 -3.006441 -1.102269 4.383901 2.588464 -2.152609 4.297737 -2.994010 -87.149758 -1.239905 1.051571 -0.063818 -4.586024 1.527908 4.917811 -15.865805 7.805038 -10.900577 1.899554 8.839285 -1.284704 0.292991 -8.483792 6.123877 -0.018696 -0.392051 0.235419 9.244537 11.484157 2.345218 7.377200 -1.215573 -0.462659 2.737979 -2.318898 -1.947630 -0.007428 -0.278561 -0.008073
4.664601 89.026601 -25.658832 128.418512 -7.837797 0.748487 0.736065 2.922750 -0.894572 0.434765 1.697091 -0.551242 0.540962 2.122010 -0.687114 0.434766 1.697096 -0.551243 -19.100644 23.919771 2.303157 -23.206936 2.448839 7.139988 -2.231996 0.929914 -0.186127 -3.718928 -1.091944 88.905285 6.106333 1.664305 1.185659 2.254673 -2.987084 -1.141532 4.389112 2.659928 -2.177938 4.679778 -2.805376 -87.191128 -1.435161 0.581043 -0.379444 -4.959799 1.211466 5.030698 -15.618968 7.979743 -10.949905 1.886155 8.844649 -1.242188 0.148431 -8.386822 6.165833 0.000937 -0.444974 0.165087 9.177728 11.584774 2.335037 7.437224 -1.145585 -0.387168 2.775947 -2.245864 -2.030247 -0.016037 -0.370891 -0.004816
4.721285 89.046843 -25.635098 128.397912 -7.928439 0.773014 0.654402 2.927779 -0.801941 0.381988 1.709973 -0.509120 0.475162 2.137992 -0.634688 0.381989 1.709979 -0.509120 -19.510945 23.690911 2.197639 -23.728333 2.234995 7.122624 -2.222593 0.967768 -0.202559 -3.765466 -1.122258 88.885298 6.079520 1.700598 1.159093 2.263272 -2.979287 -1.204775 4.405198 2.689272 -2.184980 4.960884 -2.574073 -87.283800 -1.564504 0.066525 -0.607858 -5.337796 0.883745 5.129152 -15.486067 8.116580 -10.989716 1.818693 8.832270 -1.224113 0.121382 -8.294164 6.212501 0.010088 -0.479309 0.092867 9.108072 11.648528 2.317695 7.484903 -1.075615 -0.305885 2.795208 -2.188605 -2.121011 -0.022434 -0.434291 -0.000761
4.778448 89.064018 -25.597617 128.414837 -7.992228 0.792747 0.553821 2.931067 -0.708601 0.320849 1.716508 -0.464531 0.398930 2.146038 -0.579226 0.320849 1.716514 -0.464532 -19.894124 23.456841 2.094130 -24.217320 2.009580 7.101257 -2.201649 1.007703 -0.234996 -3.845360 -1.149137 88.882100 6.031692 1.737221 1.121425 2.281141 -2.979582 -1.279274 4.431023 2.682025 -2.176063 5.139956 -2.317487 -87.422955 -1.628831 -0.465129 -0.743282 -5.690686 0.567600 5.208774 -15.478098 8.226072 -11.011205 1.682931 8.778339 -1.223320 0.210006 -8.179621 6.242812 0.013710 -0.504263 0.029287 9.056359 11.672350 2.310923 7.511352 -1.003181 -0.223112 2.794136 -2.131823 -2.216178 -0.028072 -0.486112 0.001468
4.837514 89.076564 -25.546202 128.455468 -8.021123 0.797897 0.440315 2.926609 -0.607735 0.254872 1.715911 -0.417174 0.316672 2.145178 -0.520333 0.254872 1.715918 -0.417174 -20.248083 23.222791 1.996050 -24.671511 1.779044 7.079334 -2.167777 1.049471 -0.279609 -3.956347 -1.173634 88.896153 5.957558 1.764077 1.071711 2.305935 -2.982184 -1.356247 4.463047 2.646746 -2.154466 5.232610 -2.054003 -87.596337 -1.638785 -0.978694 -0.792690 -5.988261 0.286423 5.274166 -15.560633 8.307258 -10.993135 1.505470 8.683669 -1.242111 0.358700 -8.028168 6.250337 0.017139 -0.533914 -0.017763 9.040588 11.644612 2.330011 7.509370 -0.924387 -0.144297 2.777725 -2.051590 -2.310733 -0.034548 -0.552299 -0.000579
4.898200 89.083760 -25.485248 128.506789 -8.016957 0.804208 0.320860 2.918344 -0.516122 0.186422 1.707151 -0.368104 0.231338 2.134125 -0.459312 0.186421 1.707157 -0.368104 -20.571363 22.993437 1.905321 -25.088881 1.549102 7.058667 -2.121152 1.094317 -0.330242 -4.074051 -1.194038 88.924991 5.856348 1.755259 1.009638 2.333108 -2.984794 -1.431377 4.500593 2.594053 -2.121100 5.259259 -1.801088 -87.789226 -1.602760 -1.434327 -0.768858 -6.207891 0.063360 5.328417 -15.700770 8.358060 -10.949251 1.343888 8.568445 -1.280833 0.502101 -7.889465 6.242176 0.019028 -0.536985 -0.046901 9.065597 11.580653 2.359048 7.472838 -0.842691 -0.073317 2.753718 -2.017145 -2.401057 -0.038084 -0.572275 -0.005885
